<svg t="1741331142196" class="icon" viewBox="0 0 1024 1024" version="1.1" xmlns="http://www.w3.org/2000/svg" p-id="22765" width="256" height="256"><path d="M512 0a512 512 0 1 0 512 512 512 512 0 0 0-512-512z m0 896a384 384 0 1 1 384-384 384 384 0 0 1-384 384z" p-id="22766"></path><path d="M512 192a320 320 0 1 0 320 320 320 320 0 0 0-320-320z m0 512a192 192 0 1 1 192-192 192 192 0 0 1-192 192z" p-id="22767" data-spm-anchor-id="a313x.search_index.0.i15.1da03a81BB2HnS" class=""></path><path d="M512 512m-128 0a128 128 0 1 0 256 0 128 128 0 1 0-256 0Z" p-id="22768"></path></svg>